<mxfile host="app.diagrams.net" modified="2023-05-06T07:15:20.559Z" agent="Mozilla/5.0 (Windows NT 10.0; Win64; x64) AppleWebKit/537.36 (KHTML, like Gecko) Chrome/112.0.0.0 Safari/537.36 Edg/112.0.1722.68" etag="ek6l9qDoWNXlTzgJHhGz" version="21.2.9" type="github">
  <diagram id="C5RBs43oDa-KdzZeNtuy" name="Page-1">
    <mxGraphModel dx="860" dy="899" grid="1" gridSize="10" guides="1" tooltips="1" connect="1" arrows="1" fold="1" page="1" pageScale="1" pageWidth="827" pageHeight="1169" math="0" shadow="0">
      <root>
        <mxCell id="WIyWlLk6GJQsqaUBKTNV-0" />
        <mxCell id="WIyWlLk6GJQsqaUBKTNV-1" parent="WIyWlLk6GJQsqaUBKTNV-0" />
        <mxCell id="QD6l6vyIyfiPN-CZKQBq-20" value="用户" style="whiteSpace=wrap;strokeWidth=2;rounded=1;" vertex="1" parent="WIyWlLk6GJQsqaUBKTNV-1">
          <mxGeometry x="1254" y="300" width="47" height="34" as="geometry" />
        </mxCell>
        <mxCell id="QD6l6vyIyfiPN-CZKQBq-21" value="救助站后台" style="ellipse;aspect=fixed;strokeWidth=2;whiteSpace=wrap;" vertex="1" parent="WIyWlLk6GJQsqaUBKTNV-1">
          <mxGeometry x="1182" y="377" width="77" height="77" as="geometry" />
        </mxCell>
        <mxCell id="QD6l6vyIyfiPN-CZKQBq-22" value="审核成功?" style="rhombus;strokeWidth=2;whiteSpace=wrap;" vertex="1" parent="WIyWlLk6GJQsqaUBKTNV-1">
          <mxGeometry x="1171" y="499" width="119" height="81" as="geometry" />
        </mxCell>
        <mxCell id="QD6l6vyIyfiPN-CZKQBq-23" value="派送救助员" style="whiteSpace=wrap;strokeWidth=2;" vertex="1" parent="WIyWlLk6GJQsqaUBKTNV-1">
          <mxGeometry x="1140" y="638" width="96" height="34" as="geometry" />
        </mxCell>
        <mxCell id="QD6l6vyIyfiPN-CZKQBq-24" value="救助动物" style="whiteSpace=wrap;strokeWidth=2;" vertex="1" parent="WIyWlLk6GJQsqaUBKTNV-1">
          <mxGeometry x="1149" y="741" width="79" height="34" as="geometry" />
        </mxCell>
        <mxCell id="QD6l6vyIyfiPN-CZKQBq-25" value="登记入住" style="whiteSpace=wrap;strokeWidth=2;" vertex="1" parent="WIyWlLk6GJQsqaUBKTNV-1">
          <mxGeometry x="1148" y="844" width="81" height="34" as="geometry" />
        </mxCell>
        <mxCell id="QD6l6vyIyfiPN-CZKQBq-26" value="结束" style="whiteSpace=wrap;strokeWidth=2;rounded=1;" vertex="1" parent="WIyWlLk6GJQsqaUBKTNV-1">
          <mxGeometry x="1164" y="947" width="49" height="34" as="geometry" />
        </mxCell>
        <mxCell id="QD6l6vyIyfiPN-CZKQBq-27" value="通知用户审核未通过" style="whiteSpace=wrap;strokeWidth=2;" vertex="1" parent="WIyWlLk6GJQsqaUBKTNV-1">
          <mxGeometry x="1286" y="638" width="161" height="34" as="geometry" />
        </mxCell>
        <mxCell id="QD6l6vyIyfiPN-CZKQBq-28" value="发送救援信息和地址" style="curved=1;startArrow=none;endArrow=block;exitX=0.1681470770501962;exitY=1;entryX=0.5026041666666666;entryY=0;rounded=0;" edge="1" parent="WIyWlLk6GJQsqaUBKTNV-1" source="QD6l6vyIyfiPN-CZKQBq-20" target="QD6l6vyIyfiPN-CZKQBq-21">
          <mxGeometry relative="1" as="geometry" />
        </mxCell>
        <mxCell id="QD6l6vyIyfiPN-CZKQBq-29" value="审核救助请求" style="curved=1;startArrow=none;endArrow=block;exitX=0.5026041666666666;exitY=1;entryX=0.49789915966386555;entryY=0;rounded=0;" edge="1" parent="WIyWlLk6GJQsqaUBKTNV-1" source="QD6l6vyIyfiPN-CZKQBq-21" target="QD6l6vyIyfiPN-CZKQBq-22">
          <mxGeometry relative="1" as="geometry">
            <Array as="points" />
          </mxGeometry>
        </mxCell>
        <mxCell id="QD6l6vyIyfiPN-CZKQBq-30" value="审核成功" style="curved=1;startArrow=none;endArrow=block;exitX=0.27316511711067404;exitY=1;entryX=0.5;entryY=0;rounded=0;" edge="1" parent="WIyWlLk6GJQsqaUBKTNV-1" source="QD6l6vyIyfiPN-CZKQBq-22" target="QD6l6vyIyfiPN-CZKQBq-23">
          <mxGeometry relative="1" as="geometry" />
        </mxCell>
        <mxCell id="QD6l6vyIyfiPN-CZKQBq-31" value="执行救助任务" style="curved=1;startArrow=none;endArrow=block;exitX=0.5;exitY=1;entryX=0.4936708860759494;entryY=0;rounded=0;" edge="1" parent="WIyWlLk6GJQsqaUBKTNV-1" source="QD6l6vyIyfiPN-CZKQBq-23" target="QD6l6vyIyfiPN-CZKQBq-24">
          <mxGeometry relative="1" as="geometry">
            <Array as="points" />
          </mxGeometry>
        </mxCell>
        <mxCell id="QD6l6vyIyfiPN-CZKQBq-32" value="救助成功" style="curved=1;startArrow=none;endArrow=block;exitX=0.4936708860759494;exitY=1;entryX=0.49382716049382713;entryY=0;rounded=0;" edge="1" parent="WIyWlLk6GJQsqaUBKTNV-1" source="QD6l6vyIyfiPN-CZKQBq-24" target="QD6l6vyIyfiPN-CZKQBq-25">
          <mxGeometry relative="1" as="geometry">
            <Array as="points" />
          </mxGeometry>
        </mxCell>
        <mxCell id="QD6l6vyIyfiPN-CZKQBq-33" value="完成流程" style="curved=1;startArrow=none;endArrow=block;exitX=0.49382716049382713;exitY=1;entryX=0.4897959183673469;entryY=0;rounded=0;" edge="1" parent="WIyWlLk6GJQsqaUBKTNV-1" source="QD6l6vyIyfiPN-CZKQBq-25" target="QD6l6vyIyfiPN-CZKQBq-26">
          <mxGeometry relative="1" as="geometry">
            <Array as="points" />
          </mxGeometry>
        </mxCell>
        <mxCell id="QD6l6vyIyfiPN-CZKQBq-34" value="审核失败" style="curved=1;startArrow=none;endArrow=block;exitX=0.972633202217057;exitY=1;entryX=0.4046764759090636;entryY=0;rounded=0;" edge="1" parent="WIyWlLk6GJQsqaUBKTNV-1" source="QD6l6vyIyfiPN-CZKQBq-22" target="QD6l6vyIyfiPN-CZKQBq-27">
          <mxGeometry relative="1" as="geometry" />
        </mxCell>
        <mxCell id="QD6l6vyIyfiPN-CZKQBq-35" value="通知" style="curved=1;startArrow=none;endArrow=block;exitX=0.5553729723210517;exitY=0;entryX=1;entryY=0.8081869111280876;rounded=0;" edge="1" parent="WIyWlLk6GJQsqaUBKTNV-1" source="QD6l6vyIyfiPN-CZKQBq-27" target="QD6l6vyIyfiPN-CZKQBq-20">
          <mxGeometry relative="1" as="geometry" />
        </mxCell>
      </root>
    </mxGraphModel>
  </diagram>
</mxfile>
